<svg xmlns="http://www.w3.org/2000/svg" width="306" height="30" viewBox="0 0 306 30">
    <g fill="none" fill-rule="evenodd">
        <path fill="#FFF" d="M55.327 17.157c0-1.058.186-2.071.561-3.041a7.537 7.537 0 0 1 1.628-2.557c.71-.735 1.583-1.317 2.618-1.749 1.036-.43 2.214-.646 3.537-.646 1.794 0 3.303.377 4.526 1.132 1.223.754 2.14 1.738 2.752 2.953l-4.615 1.381c-.612-.98-1.509-1.47-2.693-1.47-.986 0-1.81.363-2.471 1.088-.661.725-.99 1.695-.99 2.91 0 .607.088 1.16.265 1.66.178.499.425.925.74 1.278.316.353.685.627 1.11.823.424.196.873.294 1.346.294.592 0 1.134-.142 1.627-.426.493-.284.859-.651 1.095-1.102l4.616 1.41c-.573 1.195-1.485 2.175-2.737 2.939-1.252.764-2.777 1.146-4.571 1.146-1.303 0-2.47-.22-3.507-.661-1.035-.441-1.914-1.029-2.633-1.764a7.43 7.43 0 0 1-1.643-2.556 8.356 8.356 0 0 1-.561-3.042zm21.57.03c0 1.215.326 2.189.977 2.924.65.734 1.478 1.102 2.484 1.102.493 0 .948-.098 1.362-.294.414-.196.774-.47 1.08-.823.306-.353.547-.78.724-1.279.178-.499.267-1.043.267-1.63 0-1.215-.325-2.19-.976-2.924-.651-.735-1.47-1.103-2.457-1.103a3.228 3.228 0 0 0-2.47 1.117c-.306.353-.548.78-.725 1.279a4.835 4.835 0 0 0-.266 1.63zm3.461 7.993c-1.321 0-2.5-.215-3.535-.647-1.036-.43-1.91-1.013-2.619-1.748a7.372 7.372 0 0 1-1.613-2.557 8.571 8.571 0 0 1-.547-3.042c0-1.057.182-2.071.547-3.04a7.368 7.368 0 0 1 1.613-2.557c.71-.735 1.583-1.323 2.619-1.764 1.035-.44 2.214-.66 3.535-.66 1.322 0 2.496.22 3.521.66 1.027.441 1.895 1.029 2.605 1.764a7.566 7.566 0 0 1 1.627 2.556c.375.97.562 1.984.562 3.041a8.563 8.563 0 0 1-.548 3.042 7.358 7.358 0 0 1-1.612 2.557c-.71.735-1.583 1.318-2.618 1.748-1.036.432-2.215.647-3.537.647zm18.346-3.967c.65 0 1.272-.19 1.864-.574a3.934 3.934 0 0 0 1.39-1.572v-3.232a4.248 4.248 0 0 0-1.435-1.925c-.66-.5-1.346-.75-2.056-.75-.514 0-.982.114-1.406.339a3.756 3.756 0 0 0-1.11.896 3.963 3.963 0 0 0-.724 1.293 4.779 4.779 0 0 0-.252 1.557c0 1.157.345 2.107 1.036 2.851.69.745 1.587 1.117 2.693 1.117zM97.43 25.18c-1.065 0-2.047-.201-2.944-.602a6.834 6.834 0 0 1-2.323-1.69 7.951 7.951 0 0 1-1.523-2.542c-.366-.97-.548-2.033-.548-3.189 0-1.117.167-2.164.503-3.144.336-.98.809-1.827 1.42-2.542a6.728 6.728 0 0 1 2.175-1.69c.838-.411 1.76-.617 2.767-.617a5.78 5.78 0 0 1 2.929.764 5.26 5.26 0 0 1 2.041 2.057V3.434h4.735v16.163c0 .47.088.798.266.984.178.186.493.299.947.338v3.967a11.48 11.48 0 0 1-1.287.191c-.365.03-.695.044-.991.044-1.657-.039-2.604-.695-2.84-1.969l-.09-.823c-.572.96-1.321 1.675-2.249 2.146a6.514 6.514 0 0 1-2.988.705zm23.79-9.463c-.1-.98-.455-1.753-1.065-2.321-.613-.568-1.372-.852-2.28-.852-.926 0-1.691.289-2.292.866-.602.579-.952 1.348-1.05 2.307h6.687zm-3.284 9.463c-1.303 0-2.471-.21-3.507-.632-1.036-.42-1.914-.994-2.633-1.72a7.32 7.32 0 0 1-1.643-2.512 8.046 8.046 0 0 1-.561-2.983c0-1.116.186-2.17.561-3.158a7.637 7.637 0 0 1 1.628-2.601c.71-.744 1.583-1.332 2.618-1.764 1.036-.43 2.214-.646 3.537-.646 1.32 0 2.494.216 3.52.646 1.026.432 1.894 1.014 2.604 1.75a7.39 7.39 0 0 1 1.612 2.541c.365.96.548 1.969.548 3.027 0 .274-.01.543-.03.808-.019.265-.049.495-.088.69h-11.481c.079 1.04.458 1.828 1.14 2.366.68.54 1.454.809 2.322.809a4.27 4.27 0 0 0 1.997-.5c.641-.333 1.07-.784 1.288-1.352l4.023 1.117c-.61 1.215-1.558 2.204-2.84 2.968-1.283.764-2.821 1.146-4.615 1.146zm34.974-.294h-4.735v-8.67c0-1.018-.183-1.757-.548-2.218-.364-.46-.852-.69-1.464-.69-.63 0-1.248.255-1.85.764-.601.51-1.04 1.165-1.316 1.969v8.845h-4.734v-8.67c0-1.018-.183-1.757-.548-2.218-.364-.46-.853-.69-1.464-.69-.632 0-1.248.25-1.85.75-.602.499-1.04 1.16-1.316 1.983v8.845h-4.734V9.458h4.26v2.586a5.596 5.596 0 0 1 2.338-2.146c.986-.489 2.13-.734 3.432-.734.631 0 1.193.079 1.687.235.492.157.912.372 1.258.647.344.274.63.593.857.955.227.362.39.75.489 1.16a5.896 5.896 0 0 1 2.307-2.219c.967-.518 2.072-.778 3.314-.778.987 0 1.78.181 2.383.543.6.364 1.07.833 1.405 1.411.335.578.557 1.21.665 1.896.109.685.164 1.352.164 1.998v9.874zm13.817-9.169c-.099-.98-.454-1.753-1.065-2.321-.612-.568-1.371-.852-2.278-.852-.928 0-1.693.289-2.294.866-.601.579-.951 1.348-1.05 2.307h6.687zm-3.284 9.463c-1.303 0-2.47-.21-3.507-.632-1.035-.42-1.913-.994-2.633-1.72a7.333 7.333 0 0 1-1.642-2.512 8.054 8.054 0 0 1-.562-2.983c0-1.116.187-2.17.562-3.158a7.644 7.644 0 0 1 1.627-2.601c.71-.744 1.583-1.332 2.619-1.764 1.036-.43 2.213-.646 3.536-.646 1.321 0 2.495.216 3.52.646 1.027.432 1.895 1.014 2.605 1.75a7.39 7.39 0 0 1 1.612 2.541c.365.96.548 1.969.548 3.027 0 .274-.01.543-.03.808-.02.265-.05.495-.089.69h-11.48c.078 1.04.458 1.828 1.14 2.366.68.54 1.454.809 2.322.809.69 0 1.356-.167 1.997-.5.64-.333 1.07-.784 1.287-1.352l4.024 1.117c-.611 1.215-1.558 2.204-2.84 2.968-1.283.764-2.822 1.146-4.616 1.146zm25.417-.294h-4.734v-8.67c0-1.018-.193-1.757-.577-2.218-.385-.46-.894-.69-1.525-.69-.335 0-.675.068-1.02.205a3.8 3.8 0 0 0-.976.573 5.033 5.033 0 0 0-.844.867 3.88 3.88 0 0 0-.592 1.088v8.845h-4.733V9.458h4.26v2.586c.572-.92 1.38-1.63 2.426-2.13 1.045-.5 2.249-.75 3.61-.75 1.006 0 1.82.181 2.441.543a3.89 3.89 0 0 1 1.435 1.411c.335.578.558 1.21.666 1.896.108.685.163 1.352.163 1.998v9.874zm13.108-.823c-.65.275-1.391.529-2.219.764a9.28 9.28 0 0 1-2.545.353c-.591 0-1.15-.073-1.672-.22a3.737 3.737 0 0 1-1.376-.706c-.394-.323-.705-.75-.931-1.278-.228-.529-.342-1.166-.342-1.91v-8.052h-1.981V9.458h1.981V4.55h4.735v4.908h3.166v3.556h-3.166v6.435c0 .51.133.877.4 1.102.266.226.596.338.991.338.336 0 .69-.059 1.065-.176.374-.117.71-.245 1.006-.382l.888 3.732zm5.563-6.877c0 1.216.325 2.19.976 2.925.651.734 1.48 1.102 2.485 1.102.493 0 .948-.098 1.362-.294.414-.196.774-.47 1.08-.823.306-.353.547-.78.725-1.279.177-.499.266-1.043.266-1.63 0-1.215-.326-2.19-.976-2.924-.651-.735-1.47-1.103-2.457-1.103a3.227 3.227 0 0 0-2.47 1.117c-.306.353-.548.78-.725 1.279a4.845 4.845 0 0 0-.266 1.63zm3.461 7.994c-1.321 0-2.5-.215-3.535-.647-1.036-.43-1.909-1.013-2.619-1.748a7.372 7.372 0 0 1-1.613-2.557 8.571 8.571 0 0 1-.546-3.042c0-1.057.181-2.071.546-3.04a7.368 7.368 0 0 1 1.613-2.557c.71-.735 1.583-1.323 2.619-1.764 1.035-.44 2.214-.66 3.535-.66 1.322 0 2.495.22 3.521.66 1.026.441 1.894 1.029 2.604 1.764a7.566 7.566 0 0 1 1.628 2.556c.375.97.562 1.984.562 3.041a8.572 8.572 0 0 1-.548 3.042 7.363 7.363 0 0 1-1.612 2.557c-.71.735-1.583 1.318-2.618 1.748-1.036.432-2.215.647-3.537.647zm20.446-11.696c-1.144.02-2.174.206-3.092.558-.917.353-1.593.882-2.027 1.587v9.257h-4.734V9.458h4.35v3.115c.552-1.038 1.247-1.847 2.086-2.425.838-.577 1.73-.886 2.678-.925.394 0 .64.01.739.029v4.232zM14.858 19.55c.682 0 1.235.55 1.235 1.227 0 .678-.553 1.228-1.235 1.228H9.857c-.682 0-1.236-.55-1.236-1.228 0-.677.554-1.227 1.236-1.227h5zm1.206-4.547c.683 0 1.236.55 1.236 1.228 0 .677-.553 1.227-1.236 1.227H9.886c-.683 0-1.236-.55-1.236-1.227 0-.678.553-1.228 1.236-1.228h6.178zm10.473-2.385c-2.047 0-3.707-1.649-3.707-3.682 0-2.034 1.66-3.682 3.707-3.682 2.048 0 3.707 1.648 3.707 3.682 0 2.033-1.66 3.682-3.707 3.682zm7.25 7.819a1.78 1.78 0 0 1-1.76 2.067h-10.98a1.78 1.78 0 0 1-1.759-2.067c.551-3.405 2.436-6.153 4.895-7.243.697.388 1.5.61 2.354.61.855 0 1.658-.222 2.355-.61 2.459 1.09 4.344 3.838 4.895 7.243zm-14.015-8.752c0 .678-.553 1.228-1.236 1.228h-6.179c-.02 0-.04-.003-.061-.003h-2.41c-.683 0-1.236-.55-1.236-1.228 0-.677.553-1.227 1.236-1.227h3.707l.061.003h4.882c.683 0 1.236.55 1.236 1.227zm-9.886-3.32c-.683 0-1.236-.549-1.236-1.227s.553-1.227 1.236-1.227h.576l.042-.002h8.03c.682 0 1.236.55 1.236 1.227 0 .678-.554 1.227-1.236 1.227h-7.371l-.042.002H9.886zm13.672 17.741c.639 0 1.156-.514 1.156-1.148h12.358V2.867H4.943v22.091H17.3c0 .634.518 1.148 1.156 1.148h5.102zm18.456-1.148v1.68a1.93 1.93 0 0 1-1.936 1.923H1.937A1.93 1.93 0 0 1 0 26.637v-1.679h2.472V2.838A2.433 2.433 0 0 1 4.914.411h32.188a2.434 2.434 0 0 1 2.442 2.425V24.958h-.001 2.471zM245.417.577h1.158v28.846h-1.158V.577zm15.05.605h2.106c.977 0 1.683.138 2.118.415.436.277.653.714.653 1.311 0 .403-.107.737-.32 1.005-.214.267-.521.435-.922.504v.047c.498.092.864.272 1.099.54.235.27.352.633.352 1.092 0 .62-.223 1.105-.668 1.455-.444.35-1.063.526-1.856.526h-2.562V1.182zm1.16 2.849h1.116c.485 0 .84-.075 1.063-.224.223-.15.335-.404.335-.762 0-.324-.121-.558-.362-.703-.241-.144-.624-.217-1.148-.217h-1.004v1.906zm0 .915v2.183h1.232c.486 0 .852-.09 1.1-.271.247-.18.37-.466.37-.856 0-.359-.125-.624-.378-.797-.252-.173-.636-.26-1.15-.26h-1.174zm7.93-.618l1.679-3.146h1.262l-2.364 4.221v2.674h-1.164V5.44l-2.354-4.259h1.262l1.679 3.146zm27.347 23.617c-1.179-.895-2.094-1.955-2.717-3.15a8.174 8.174 0 0 1-.941-3.81c0-1.34.312-2.626.932-3.818.616-1.187 1.535-2.241 2.726-3.14l.248-.18.1.133.708 1.001-.111.099c-.999.897-1.661 1.761-2.056 2.648-.397.884-.597 1.974-.597 3.242 0 1.312.207 2.424.618 3.306.413.888 1.069 1.744 1.947 2.54l.199.162-.086.136-.722 1.02-.248-.19zm4.9 0l-.247.19-.722-1.02-.086-.137.198-.163c.88-.795 1.535-1.65 1.948-2.539.41-.882.618-1.994.618-3.306 0-1.268-.2-2.358-.597-3.242-.395-.887-1.057-1.751-2.056-2.648l-.11-.099.707-1 .1-.135.248.18c1.191.9 2.11 1.954 2.726 3.141a8.198 8.198 0 0 1 .932 3.817 8.174 8.174 0 0 1-.941 3.812c-.623 1.194-1.538 2.254-2.717 3.149zm-38.93-6.952c0 .98.261 1.776.785 2.392.537.623 1.215.933 2.03.933.873 0 1.578-.3 2.116-.9.538-.624.806-1.415.806-2.373 0-.958-.268-1.747-.806-2.37-.538-.609-1.236-.913-2.094-.913-.809 0-1.486.308-2.03.924-.538.623-.806 1.39-.806 2.307zm5.59-5.077h2.365v10.217h-2.365v-1.07c-.97.91-2.013 1.364-3.13 1.364-1.409 0-2.574-.51-3.495-1.53-.915-1.043-1.372-2.344-1.372-3.904 0-1.53.457-2.807 1.372-3.83.914-1.02 2.057-1.53 3.433-1.53 1.186 0 2.25.489 3.192 1.468v-1.185zm5.338.087h2.355v.914c.434-.455.81-.786 1.166-.905 1.104-.37 2.456-.114 3.555.502l-.956 1.917c-.446-.32-1.145-.53-1.57-.53-1.284 0-2.195 1.078-2.195 3.022v5.298h-2.355V16.003zm16.146.354v2.257c-.725-.852-2.354-.852-2.92-.852-.887 0-1.623.312-2.209.935-.585.62-.878 1.401-.878 2.338 0 .958.282 1.745.846 2.361.574.614 1.303.922 2.189.922.564 0 2.318-.179 2.972-.768v2.132c-.956.496-1.911.745-2.867.745-1.577 0-2.897-.51-3.957-1.53-1.06-1.03-1.591-2.306-1.591-3.83 0-1.525.537-2.81 1.61-3.86 1.076-1.05 2.395-1.574 3.958-1.574 1.005 0 1.954.24 2.847.724z"/>
    </g>
</svg>
